<?xml version="1.0" encoding="UTF-8" standalone="no"?>

<svg
   width="234px"
   height="84px"
   viewBox="0 0 234 84"
   version="1.1"
   id="svg5"
   xmlns="http://www.w3.org/2000/svg"
   xmlns:svg="http://www.w3.org/2000/svg"
   xmlns:xlink="http://www.w3.org/1999/xlink">
  <defs>
      <path
         d="M 0,0 v 90 v -6"
         id="motionPath"/>      
  </defs>
  <g
      id="text">
     <path
         id="letterBVolume"
         style="fill:#6416a0;stroke:#6416a0;stroke-width:2;stroke-linecap:square"
         d="M 18,12 h 12 v 24 h 9 l 3,-3 v -6 l -3,-3 h -15 v -12 h 21 l 9,9 v 18 l -3,3 3,3 v 18 l -9,9 h -21 v -12 h 15 l 3,-3 v -6 l -3,-3 h -9 v 24 h -12 z"/>
     <path
         id="letterRVolume"
         style="fill:#6416a0;stroke:#6416a0;stroke-width:2;stroke-linecap:square;"
         d="M 66,36 h 27 l 9,9 v 9 h -12 v -3 l -3,-3 h -9 v 24 h -12 z"/>
     <path
         id="letterUVolume"
         style="fill:#6416a0;stroke:#6416a0;stroke-width:2;stroke-linecap:square;"
         d="M 114,36 h 12 v 21 l 3,3 h 9 v -24 h 12 v 36 h -27 l -9,-9 z"/>
     <path
         id="letterTVolume"
         style="fill:#6416a0;stroke:#6416a0;stroke-width:2;stroke-linecap:square;"
         d="M 174,12 h 12 v 12 h 12 v 12 h -12 v 21 l 3,3 h 9 v 12 h -15 l -9,-9 v -27 h -12 v -12 h 12 z"/>
     <path
         id="letterBFill"
         style="fill:#ffffff;stroke:none"
         d="M 12,12 h 12 v 24 h 9 l 3,-3 v -6 l -3,-3 h -15 v -12 h 21 l 9,9 v 18 l -3,3 3,3 v 18 l -9,9 h -21 v -12 h 15 l 3,-3 v -6 l -3,-3 h -9 v 24 h -12 z"/>
     <path
         id="letterBOutline"
         style="fill:none;stroke:#6416a0;stroke-width:2;stroke-linecap:square"
         d="M 12,72 v -60 h 27 l 9,9 v 18 l -3,3 3,3 v 18 l -9,9 z"/>
     <path
         id="letterBHole1"
         style="fill:none;stroke:#6416a0;stroke-width:2;stroke-linecap:square"
         d="M 24,24 h 9 l 3,3 v 6 l -3,3 h -9 z"/>
     <path
         id="letterBHole2"
         style="fill:none;stroke:#6416a0;stroke-width:2;stroke-linecap:square"
         d="M 24,48 h 9 l 3,3 v 6 l -3,3 h -9 z"/>
     <path
         id="letterR"
         style="fill:#ffffff;stroke:#6416a0;stroke-width:2;stroke-linecap:square"
         d="M 60,36 h 27 l 9,9 v 9 h -12 v -3 l -3,-3 h -9 v 24 h -12 z"/>
     <path
         id="letterU"
         style="fill:#ffffff;stroke:#6416a0;stroke-width:2;stroke-linecap:square"
         d="M 108,36 h 12 v 21 l 3,3 h 9 v -24 h 12 v 36 h -27 l -9,-9 z"/>
     <path
         id="letterT"
         style="fill:#ffffff;stroke:#6416a0;stroke-width:2;stroke-linecap:square"
         d="M 168,12 h 12 v 12 h 12 v 12 h -12 v 21 l 3,3 h 9 v 12 h -15 l -9,-9 v -27 h -12 v -12 h 12 z"/>
  </g>
  <g>
     <path
         id="exclamationMarkVolume"
         style="fill:#6416a0;stroke:#6416a0;stroke-width:2;stroke-linecap:square"
         d="M 210,-24 h 12 v 12 h -12 v -12 m 0,-12 h 12 v -36 h -12 v 36"/>
     <path
         id="exclamationMark"
         style="fill:#ffffff;stroke:#6416a0;stroke-width:2;stroke-linecap:square"
         d="M 204,-24 h 12 v 12 h -12 v -12 m 0,-12 h 12 v -36 h -12 v 36"/>
     <animateMotion
         id="anim2"
         begin="0.5s"
         dur="0.2s"
         fill="freeze"
         calcMode="spline">
        <mpath
            xlink:href="#motionPath"/>
     </animateMotion>
  </g>
</svg>