<?xml version="1.0" encoding="UTF-8" standalone="no"?>
<!-- Created with Inkscape (http://www.inkscape.org/) -->

<svg
   width="80mm"
   height="28mm"
   viewBox="0 0 80 28"
   version="1.1"
   id="svg5"
   inkscape:version="1.1 (c68e22c387, 2021-05-23)"
   sodipodi:docname="logo.svg"
   xmlns:inkscape="http://www.inkscape.org/namespaces/inkscape"
   xmlns:sodipodi="http://sodipodi.sourceforge.net/DTD/sodipodi-0.dtd"
   xmlns="http://www.w3.org/2000/svg"
   xmlns:svg="http://www.w3.org/2000/svg"
   xmlns:rdf="http://www.w3.org/1999/02/22-rdf-syntax-ns#"
   xmlns:cc="http://creativecommons.org/ns#">
  <sodipodi:namedview
     id="namedview7"
     pagecolor="#505050"
     bordercolor="#ffffff"
     borderopacity="1"
     inkscape:pageshadow="0"
     inkscape:pageopacity="0"
     inkscape:pagecheckerboard="1"
     inkscape:document-units="mm"
     showgrid="true"
     inkscape:zoom="2.3765254"
     inkscape:cx="183.25072"
     inkscape:cy="75.530436"
     inkscape:window-width="1366"
     inkscape:window-height="704"
     inkscape:window-x="0"
     inkscape:window-y="27"
     inkscape:window-maximized="1"
     inkscape:current-layer="layer1">
    <inkscape:grid
       type="xygrid"
       id="grid824"
       color="#4c4c4c"
       opacity="0.19215686"
       units="mm"
       spacingx="0.99999997"
       spacingy="0.99999997"
       empcolor="#757575"
       empopacity="0.43529412"
       empspacing="4" />
  </sodipodi:namedview>
  <defs
     id="defs2">
    <inkscape:path-effect
       effect="powerstroke"
       id="path-effect967"
       is_visible="true"
       lpeversion="1"
       offset_points="0,1"
       not_jump="false"
       sort_points="true"
       interpolator_type="CubicBezierJohan"
       interpolator_beta="0.2"
       start_linecap_type="zerowidth"
       linejoin_type="extrp_arc"
       miter_limit="4"
       scale_width="1"
       end_linecap_type="zerowidth" />
    <inkscape:path-effect
       effect="powerstroke"
       id="path-effect3147"
       is_visible="true"
       lpeversion="1"
       offset_points="0.53846152,0.99999999"
       not_jump="false"
       sort_points="true"
       interpolator_type="CubicBezierJohan"
       interpolator_beta="0.2"
       start_linecap_type="zerowidth"
       linejoin_type="extrp_arc"
       miter_limit="4"
       scale_width="1"
       end_linecap_type="zerowidth" />
  </defs>
  <g
     inkscape:label="Calque 1"
     inkscape:groupmode="layer"
     id="layer1">
    <path
       style="fill:#ffffff;fill-opacity:1;fill-rule:nonzero;stroke:none;stroke-width:0.264583px;stroke-linecap:butt;stroke-linejoin:miter;stroke-opacity:1"
       d="m 47.999999,11.999999 v 11.999999 h -9 l -3,-3 V 12 h 4 v 6.999999 l 1,0.999999 h 2 l 1,-0.999999 v -7 z"
       id="path1142"
       sodipodi:nodetypes="cccccccccccc" />
    <a
       id="a1635"
       style="stroke:#6416a0;stroke-opacity:1"
       transform="rotate(180,25.999999,18)">
      <path
         style="fill:none;fill-opacity:0.998677;fill-rule:nonzero;stroke:#6416a0;stroke-width:0.264583px;stroke-linecap:butt;stroke-linejoin:miter;stroke-opacity:1"
         d="M 3.9999999,23.999999 4.0000013,12 h 8.9999997 l 3,3 -2e-6,9 h -4 l 2e-6,-7.000001 -1,-0.999999 H 9.0000011 l -0.9999999,0.999999 v 7 z"
         id="path1633"
         sodipodi:nodetypes="cccccccccccc" />
    </a>
    <path
       style="fill:#ffffff;fill-opacity:1;fill-rule:nonzero;stroke:none;stroke-width:0.264583px;stroke-linecap:butt;stroke-linejoin:miter;stroke-opacity:1"
       d="m 67.999998,23.999999 0,-4 h 4 l 0,4 z"
       id="path1245"
       sodipodi:nodetypes="ccccc" />
    <path
       style="fill:#ffffff;fill-opacity:1;fill-rule:nonzero;stroke:none;stroke-width:0.264583px;stroke-linecap:butt;stroke-linejoin:miter;stroke-opacity:1"
       d="m 59.999998,7.9999998 h 4 V 12 h -4 l 0,6.999999 1,1 h 3 l 0,4 h -5 l -3,-3 0,-8.999999 h -4 l 0,-4.0000002 h 4 V 3.9999999 h 4 z"
       id="path1243"
       sodipodi:nodetypes="ccccccccccccccccc" />
    <path
       style="fill:#ffffff;fill-opacity:1;fill-rule:nonzero;stroke:none;stroke-width:0.264583px;stroke-linecap:butt;stroke-linejoin:miter;stroke-opacity:1"
       d="M 19.999999,23.999999 V 12 h 9 l 3,3 v 2.999999 h -4 v -1 l -1,-0.999999 h -2 l -1,0.999999 v 7 z"
       id="path2370"
       sodipodi:nodetypes="cccccccccccc" />
    <path
       style="fill:#ffffff;fill-opacity:1;fill-rule:nonzero;stroke:none;stroke-width:0.264583px;stroke-linecap:butt;stroke-linejoin:miter;stroke-opacity:1"
       d="m 3.9999999,14 0,-10.0000001 H 13 L 16,6.9999998 16,13 l -1,1 1,1 0,5.999999 -3,3 H 3.9999999 l 0,-9.999999 h 3.9999999 l 0,5.999999 H 11 l 1,-1 v -2 L 11,16 H 3.9999999 V 12 H 11 l 1,-1 V 8.9999997 L 11,7.9999998 H 7.9999998 V 14 Z"
       id="path932"
       sodipodi:nodetypes="cccccccccccccccccccccccccc" />
    <g
       id="g9353"
       transform="translate(45.999999,8.9999993)">
      <a
         id="a4064-3-3"
         style="stroke:#6416a0;stroke-opacity:1"
         transform="translate(3.9999994,3.9999999)">
        <path
           style="fill:none;fill-opacity:0.998677;fill-rule:nonzero;stroke:#6416a0;stroke-width:0.264583px;stroke-linecap:butt;stroke-linejoin:miter;stroke-opacity:1"
           d="m 5.9999998,-0.99999998 -3.9999999,2e-8 V -4.9999998 h 3.9999999 v -3.9999999 h 3.9999998 v 3.9999999 H 14 v 3.99999982 H 9.9999996 V 5.9999998 l 1.0000004,1 h 3 V 11 H 8.9999997 L 5.9999998,7.9999998 Z"
           id="path3145-6-6"
           sodipodi:nodetypes="ccccccccccccccccc" />
      </a>
    </g>
    <a
       id="a4064"
       style="stroke:#6416a0;stroke-opacity:1">
      <path
         style="fill:none;fill-opacity:0.998677;fill-rule:nonzero;stroke:#6416a0;stroke-width:0.264583px;stroke-linecap:butt;stroke-linejoin:miter;stroke-opacity:1"
         d="M 3.9999999,23.999999 V 3.9999999 H 13 l 3,2.9999999 V 13 l -1,1 1,1 v 5.999999 l -3,3 z"
         id="path3145"
         sodipodi:nodetypes="cccccccccc" />
    </a>
    <path
       style="fill:#6416a0;fill-opacity:1;fill-rule:nonzero;stroke:#6416a0;stroke-width:0.264583px;stroke-linecap:butt;stroke-linejoin:miter;stroke-opacity:1"
       d="M 16.000001,20.999999 V 15 l -1,-1 1,-1 V 7.0000002 l -3,-2.9999999 h 2 l 3,2.9999999 V 13 l -1,1 1,1 v 5.999999 l -3,3 h -2 z"
       id="path965"
       sodipodi:nodetypes="ccccccccccccccc" />
    <a
       id="a4064-3"
       style="stroke:#6416a0;stroke-opacity:1"
       transform="translate(3.9999995,4.0000003)">
      <path
         style="fill:none;fill-opacity:0.998677;fill-rule:nonzero;stroke:#6416a0;stroke-width:0.264583px;stroke-linecap:butt;stroke-linejoin:miter;stroke-opacity:1"
         d="m 4.0000004,7.9999997 -5e-7,-3.9999998 H 7.0000003 L 8.0000002,4.9999998 V 6.9999994 L 7.0000007,7.9999997 Z"
         id="path3145-6"
         sodipodi:nodetypes="ccccccc" />
    </a>
    <path
       style="fill:#6416a0;fill-opacity:1;fill-rule:nonzero;stroke:#6416a0;stroke-width:0.264583px;stroke-linecap:butt;stroke-linejoin:miter;stroke-opacity:1"
       d="M 7.9999999,12 V 8.0000002 h 2 V 12 Z"
       id="path965-7"
       sodipodi:nodetypes="ccccc" />
    <a
       id="a4064-3-5"
       style="stroke:#6416a0;stroke-opacity:1"
       transform="translate(3.9999995,12)">
      <path
         style="fill:none;fill-opacity:0.998677;fill-rule:nonzero;stroke:#6416a0;stroke-width:0.264583px;stroke-linecap:butt;stroke-linejoin:miter;stroke-opacity:1"
         d="m 4.0000004,7.9999997 -5e-7,-3.9999998 H 7.0000003 L 8.0000002,4.9999998 V 6.9999994 L 7.0000007,7.9999997 Z"
         id="path3145-6-3"
         sodipodi:nodetypes="ccccccc" />
    </a>
    <path
       style="fill:#6416a0;fill-opacity:1;fill-rule:nonzero;stroke:#6416a0;stroke-width:0.264583px;stroke-linecap:butt;stroke-linejoin:miter;stroke-opacity:1"
       d="m 7.9999999,20 v -4 h 2.0000011 v 4 z"
       id="path965-7-5"
       sodipodi:nodetypes="ccccc" />
    <a
       id="a936"
       style="stroke:#6416a0;stroke-opacity:1"
       transform="translate(15.999998)">
      <path
         style="fill:none;fill-opacity:0.998677;fill-rule:nonzero;stroke:#6416a0;stroke-width:0.264583px;stroke-linecap:butt;stroke-linejoin:miter;stroke-opacity:1"
         d="M 3.9999999,23.999999 4.0000013,12 h 8.9999997 l 3,3 v 2.999999 h -4 v -1 L 11.000001,16 H 9.0000011 l -0.9999999,0.999999 v 7 z"
         id="path934"
         sodipodi:nodetypes="cccccccccccc" />
    </a>
    <path
       style="fill:#6416a0;fill-opacity:1;fill-rule:nonzero;stroke:#6416a0;stroke-width:0.264583px;stroke-linecap:butt;stroke-linejoin:miter;stroke-opacity:1"
       d="m 23.999999,23.999999 v -7 l 1,-0.999999 h 1 v 7.999999 z"
       id="path2724"
       sodipodi:nodetypes="cccccc" />
    <path
       style="fill:#6416a0;fill-opacity:1;fill-rule:nonzero;stroke:#6416a0;stroke-width:0.264583px;stroke-linecap:butt;stroke-linejoin:miter;stroke-opacity:1"
       d="m 31.999999,18 v -3 l -3,-3 h 2 l 3,3 v 3 z"
       id="path2726"
       sodipodi:nodetypes="ccccccc" />
    <path
       style="fill:#6416a0;fill-opacity:1;fill-rule:nonzero;stroke:#6416a0;stroke-width:0.264583px;stroke-linecap:butt;stroke-linejoin:miter;stroke-opacity:1"
       d="M 39.999999,18.999999 V 12 h 2 v 7.999999 h -1 z"
       id="path2728"
       sodipodi:nodetypes="cccccc" />
    <path
       style="fill:#6416a0;fill-opacity:1;fill-rule:nonzero;stroke:#6416a0;stroke-width:0.264583px;stroke-linecap:butt;stroke-linejoin:miter;stroke-opacity:1"
       d="M 47.999998,23.999999 V 12 h 2 v 11.999999 z"
       id="path2730"
       sodipodi:nodetypes="ccccc" />
    <path
       style="fill:#6416a0;fill-opacity:1;fill-rule:nonzero;stroke:#6416a0;stroke-width:0.264583px;stroke-linecap:butt;stroke-linejoin:miter;stroke-opacity:1"
       d="M 59.999998,18.999999 V 12 h 2 v 7.999999 h -1 z"
       id="path2732"
       sodipodi:nodetypes="cccccc" />
    <path
       style="fill:#6416a0;fill-opacity:1;fill-rule:nonzero;stroke:#6416a0;stroke-width:0.264583px;stroke-linecap:butt;stroke-linejoin:miter;stroke-opacity:1"
       d="m 59.999998,7.9999995 v -4 h 2 v 4 z"
       id="path2734"
       sodipodi:nodetypes="ccccc" />
    <path
       style="fill:#6416a0;fill-opacity:1;fill-rule:nonzero;stroke:#6416a0;stroke-width:0.264583px;stroke-linecap:butt;stroke-linejoin:miter;stroke-opacity:1"
       d="M 63.999998,12 V 7.9999994 h 2 V 12 Z"
       id="path2736"
       sodipodi:nodetypes="ccccc" />
    <path
       style="fill:#6416a0;fill-opacity:1;fill-rule:nonzero;stroke:#6416a0;stroke-width:0.264583px;stroke-linecap:butt;stroke-linejoin:miter;stroke-opacity:1"
       d="m 63.999998,23.999999 v -4 h 2 v 4 z"
       id="path2738"
       sodipodi:nodetypes="ccccc" />
    <path
       style="fill:#6416a0;fill-opacity:1;fill-rule:nonzero;stroke:#6416a0;stroke-width:0.264583px;stroke-linecap:butt;stroke-linejoin:miter;stroke-opacity:1"
       d="m 71.999998,23.999999 v -4 h 2 v 4 z"
       id="path4012"
       sodipodi:nodetypes="ccccc" />
    <path
       style="fill:none;fill-opacity:1;fill-rule:nonzero;stroke:#6416a0;stroke-width:0.264583px;stroke-linecap:butt;stroke-linejoin:miter;stroke-opacity:1"
       d="m 67.999998,23.999999 v -4 l 4,0 v 4 z"
       id="path4014"
       sodipodi:nodetypes="ccccc" />
  </g>
  <metadata
     id="metadata2934">
    <rdf:RDF>
      <cc:Work
         rdf:about="">
        <cc:license
           rdf:resource="http://creativecommons.org/publicdomain/zero/1.0/" />
      </cc:Work>
      <cc:License
         rdf:about="http://creativecommons.org/publicdomain/zero/1.0/">
        <cc:permits
           rdf:resource="http://creativecommons.org/ns#Reproduction" />
        <cc:permits
           rdf:resource="http://creativecommons.org/ns#Distribution" />
        <cc:permits
           rdf:resource="http://creativecommons.org/ns#DerivativeWorks" />
      </cc:License>
    </rdf:RDF>
  </metadata>
</svg>
