<?xml version="1.0" encoding="UTF-8" standalone="no"?>

<svg
   width="200px"
   height="84px"
   viewBox="0 0 200 84"
   version="1.1"
   id="svg5"
   xmlns="http://www.w3.org/2000/svg"
   xmlns:svg="http://www.w3.org/2000/svg"
   xmlns:xlink="http://www.w3.org/1999/xlink">
  <defs>
      <path
         d="M 0,0 h -6"
         id="motionPath"/>      
  </defs>
  <g
      id="volume"
      opacity="0">
     <path
         id="letterBVolume"
         style="fill:#6416a0;stroke:#6416a0;stroke-width:2px;stroke-linecap:square"
         d="M 18,12 h 12 v 24 h 9 l 3,-3 v -6 l -3,-3 h -15 v -12 h 21 l 9,9 v 18 l -3,3 3,3 v 18 l -9,9 h -21 v -12 h 15 l 3,-3 v -6 l -3,-3 h -9 v 24 h -12 z"/>
     <path
         id="letterRVolume"
         style="fill:#6416a0;stroke:#6416a0;stroke-width:2px;stroke-linecap:square;"
         d="M 66,36 h 27 l 9,9 v 9 h -12 v -3 l -3,-3 h -9 v 24 h -12 z"/>
     <path
         id="letterUVolume"
         style="fill:#6416a0;stroke:#6416a0;stroke-width:2px;stroke-linecap:square;"
         d="M 114,36 h 12 v 21 l 3,3 h 9 v -24 h 12 v 36 h -27 l -9,-9 z"/>
     <path
         id="letterTVolume"
         style="fill:#6416a0;stroke:#6416a0;stroke-width:2px;stroke-linecap:square;"
         d="M 174,12 h 12 v 12 h 12 v 12 h -12 v 21 l 3,3 h 9 v 12 h -15 l -9,-9 v -27 h -12 v -12 h 12 z"/>
     <animate
         id="anim1"
         attributeName="opacity"
         begin="1.5s"
         values="0;1"
         dur="0.1s"
         calcMode="discrete"
         fill="freeze"/>
  </g>
  <g
      id="front">
     <g
         id="fill"
         opacity="0">
        <path
            id="letterBFill"
            style="fill:#ffffff;stroke:none"
            d="M 18,12 h 12 v 24 h 9 l 3,-3 v -6 l -3,-3 h -15 v -12 h 21 l 9,9 v 18 l -3,3 3,3 v 18 l -9,9 h -21 v -12 h 15 l 3,-3 v -6 l -3,-3 h -9 v 24 h -12 z"/>
        <path
            id="letterRFill"
            style="fill:#ffffff;stroke:none"
            d="M 66,36 h 27 l 9,9 v 9 h -12 v -3 l -3,-3 h -9 v 24 h -12 z"/>
        <path
            id="letterUFill"
            style="fill:#ffffff;stroke:none"
            d="M 114,36 h 12 v 21 l 3,3 h 9 v -24 h 12 v 36 h -27 l -9,-9 z"/>
        <path
            id="letterTFill"
            style="fill:#ffffff;stroke:none"
            d="M 174,12 h 12 v 12 h 12 v 12 h -12 v 21 l 3,3 h 9 v 12 h -15 l -9,-9 v -27 h -12 v -12 h 12 z"/>
        <animate
            id="anim21"
            attributeName="opacity" 
            begin="0.5s"
            values="0;1"
            dur="1.1s"
            calcMode="linear"
            fill="freeze"/>
     </g>
     <g
         id="outline">
        <path
            id="letterBOutline"
            style="fill:none;stroke:#6416a0;stroke-width:2px;stroke-dasharray:190;stroke-dashoffset:190;stroke-linecap:square"
            d="M 18,72 v -60 h 27 l 9,9 v 18 l -3,3 3,3 v 18 l -9,9 z">
           <animate
               id="anim221"
               attributeName="stroke-dashoffset"
               begin="0.5s"
               values="190;0"
               dur="1s"
               calcMode="linear"
               fill="freeze"/>
        </path>
        <path
            id="letterBHole1"
            style="fill:none;stroke:#6416a0;stroke-width:2px;stroke-dasharray:50;stroke-dashoffset:50;stroke-linecap:square"
            d="M 30,24 h 9 l 3,3 v 6 l -3,3 h -9 z">
           <animate
               id="anim2211"
               attributeName="stroke-dashoffset"
               begin="0.8s"
               values="50;0"
               dur="0.5s"
               calcMode="linear"
               fill="freeze"/>
        </path>
        <path
            id="letterBHole2"
            style="fill:none;stroke:#6416a0;stroke-width:2px;stroke-dasharray:50;stroke-dashoffset:50;stroke-linecap:square"
            d="M 30,48 h 9 l 3,3 v 6 l -3,3 h -9 z">
           <animate
               id="anim2212"
               attributeName="stroke-dashoffset"
               begin="1s"
               values="50;0"
               dur="0.5s"
               calcMode="linear"
               fill="freeze"/>
        </path>
        <path
            id="letterROutline"
            style="fill:none;stroke:#6416a0;stroke-width:2px;stroke-dasharray:150;stroke-dashoffset:150;stroke-linecap:square"
            d="M 66,36 h 27 l 9,9 v 9 h -12 v -3 l -3,-3 h -9 v 24 h -12 z">
           <animate
               id="anim222"
               attributeName="stroke-dashoffset"
               begin="0.5s"
               values="150;0"
               dur="0.8s"
               calcMode="linear"
               fill="freeze"/>
        </path>
        <path
            id="letterUOutline"
            style="fill:none;stroke:#6416a0;stroke-width:2px;stroke-dasharray:185;stroke-dashoffset:185;stroke-linecap:square"
            d="M 114,36 h 12 v 21 l 3,3 h 9 v -24 h 12 v 36 h -27 l -9,-9 z">
           <animate
               id="anim223"
               attributeName="stroke-dashoffset"
               begin="0.5s"
               values="185;0"
               dur="0.8s"
               calcMode="linear"
               fill="freeze"/>
        </path>
        <path
            id="letterTOutline"
            style="fill:none;stroke:#6416a0;stroke-width:2px;stroke-dasharray:210;stroke-dashoffset:210;stroke-linecap:square"
            d="M 174,12 h 12 v 12 h 12 v 12 h -12 v 21 l 3,3 h 9 v 12 h -15 l -9,-9 v -27 h -12 v -12 h 12 z">
           <animate
               id="anim224"
               attributeName="stroke-dashoffset"
               begin="0.5s"
               values="210;0"
               dur="1.1s"
               calcMode="linear"
               fill="freeze"/>
        </path>
     </g>
     <animateMotion
         id="anim2"
         begin="1.6s"
         dur="0.2s"
         fill="freeze">
        <mpath
            xlink:href="#motionPath"/>
     </animateMotion>
  </g>
</svg>